<?xml version="1.0" encoding="utf-8"?>
<!-- Generator: Adobe Illustrator 13.0.0, SVG Export Plug-In . SVG Version: 6.00 Build 14948)  -->
<!DOCTYPE svg PUBLIC "-//W3C//DTD SVG 1.1//EN" "http://www.w3.org/Graphics/SVG/1.1/DTD/svg11.dtd">
<svg version="1.1" id="Layer_1" xmlns="http://www.w3.org/2000/svg" xmlns:xlink="http://www.w3.org/1999/xlink" x="0px" y="0px"
	 width="256px" height="256px" viewBox="0 0 256 256" enable-background="new 0 0 256 256" xml:space="preserve">
<g>
	<path fill="#C4C4C4" d="M0,0v256h256V0H0z M191.938,162.467c-1.756,25.088-16.854,43.08-40.849,49.012
		c-31.354,7.752-61.801-4.056-87.526-20.539c6.493-9.892,14.026-16.644,20.48-26.475c14.862,6.326,26.538,14.874,42.086,16.207
		c10.963,0.939,23.385,0.417,25.848-12.46c2.221-11.612-7.886-17.837-17.742-21.313c-11.733-4.14-23.446-9.203-34.957-13.9
		c-21.273-8.689-29.929-25.684-28.472-45.705c0-11.739,9.74-35.466,33.621-42.846c36.692-11.34,56.908,0.272,83.515,17.371
		c-7.064,9.346-12.5,15.991-19.479,25.225c-13.518-7.842-25.514-14.009-41.21-13.737c-8.98,0.156-16.69,5.037-18.311,13.97
		c-1.509,8.311,5.879,12.921,13.565,15.751c12.747,4.694,23.847,9.65,36.369,14.869C181.643,127.383,193.318,142.75,191.938,162.467
		z"/>
</g>
</svg>
